<svg width="1600" height="520" viewBox="0 0 1600 520" fill="none" xmlns="http://www.w3.org/2000/svg">
  <rect width="1600" height="520" fill="#ECFDF5"/>
  <rect width="1600" height="520" fill="url(#bg)"/>
  <path d="M0 360C176 292 300 330 458 274C650 206 747 104 968 132C1160 156 1272 256 1600 186V520H0V360Z" fill="#16A34A" fill-opacity="0.16"/>
  <path d="M0 424C190 348 348 422 520 354C710 278 766 252 966 286C1168 320 1312 398 1600 306V520H0V424Z" fill="#F97316" fill-opacity="0.12"/>
  <g filter="url(#shadow)">
    <circle cx="1044" cy="290" r="86" fill="#EF4444"/>
    <path d="M967 256C1002 188 1100 185 1139 248C1096 228 1018 226 967 256Z" fill="#86EFAC"/>
    <path d="M997 244C1027 226 1074 228 1099 257C1062 242 1026 239 997 244Z" fill="#FCA5A5"/>
  </g>
  <g filter="url(#shadow)">
    <path d="M1228 356C1170 328 1154 254 1196 212C1260 249 1288 315 1228 356Z" fill="#F97316"/>
    <path d="M1195 212C1232 218 1267 250 1282 292C1240 273 1208 248 1195 212Z" fill="#FDBA74"/>
    <path d="M1213 206C1197 174 1202 148 1226 126" stroke="#15803D" stroke-width="18" stroke-linecap="round"/>
  </g>
  <g filter="url(#shadow)">
    <path d="M1336 310C1292 250 1327 178 1394 173C1432 237 1404 306 1336 310Z" fill="#84CC16"/>
    <path d="M1351 182C1362 232 1355 270 1337 309" stroke="#4D7C0F" stroke-width="10" stroke-linecap="round"/>
  </g>
  <g filter="url(#shadow)">
    <path d="M786 326C740 286 748 208 809 182C864 230 864 302 786 326Z" fill="#22C55E"/>
    <path d="M806 183C816 237 808 284 785 325" stroke="#15803D" stroke-width="10" stroke-linecap="round"/>
  </g>
  <text x="96" y="202" fill="#14532D" font-family="Inter, Arial, sans-serif" font-size="74" font-weight="800">Fresh Vegetables</text>
  <text x="100" y="270" fill="#166534" font-family="Inter, Arial, sans-serif" font-size="34" font-weight="600">Picked daily. Delivered fast.</text>
  <rect x="100" y="312" width="260" height="54" rx="27" fill="white" fill-opacity="0.86"/>
  <circle cx="132" cy="339" r="10" fill="#22C55E"/>
  <text x="154" y="350" fill="#166534" font-family="Inter, Arial, sans-serif" font-size="22" font-weight="700">Farm fresh quality</text>
  <defs>
    <linearGradient id="bg" x1="0" y1="0" x2="1600" y2="520" gradientUnits="userSpaceOnUse">
      <stop stop-color="#F0FDF4"/>
      <stop offset="0.48" stop-color="#DCFCE7"/>
      <stop offset="1" stop-color="#FFEDD5"/>
    </linearGradient>
    <filter id="shadow" x="-20%" y="-20%" width="140%" height="140%" color-interpolation-filters="sRGB">
      <feDropShadow dx="0" dy="22" stdDeviation="24" flood-color="#14532D" flood-opacity="0.18"/>
    </filter>
  </defs>
</svg>
